<svg xmlns="http://www.w3.org/2000/svg" class="w-full h-full leading-none markmap mm-fg7efn-1" style=""><style>.markmap{--markmap-max-width: 9999px;--markmap-a-color: #0097e6;--markmap-a-hover-color: #00a8ff;--markmap-code-bg: #f0f0f0;--markmap-code-color: #555;--markmap-highlight-bg: #ffeaa7;--markmap-table-border: 1px solid currentColor;--markmap-font: 300 16px/20px sans-serif;--markmap-circle-open-bg: #fff;--markmap-text-color: #333;--markmap-highlight-node-bg: #ff02;font:var(--markmap-font);color:var(--markmap-text-color)}.markmap-link{fill:none}.markmap-node&gt;circle{cursor:pointer}.markmap-foreign{display:inline-block}.markmap-foreign p{margin:0}.markmap-foreign a{color:var(--markmap-a-color)}.markmap-foreign a:hover{color:var(--markmap-a-hover-color)}.markmap-foreign code{padding:.25em;font-size:calc(1em - 2px);color:var(--markmap-code-color);background-color:var(--markmap-code-bg);border-radius:2px}.markmap-foreign pre{margin:0}.markmap-foreign pre&gt;code{display:block}.markmap-foreign del{text-decoration:line-through}.markmap-foreign em{font-style:italic}.markmap-foreign strong{font-weight:700}.markmap-foreign mark{background:var(--markmap-highlight-bg)}.markmap-foreign table,.markmap-foreign th,.markmap-foreign td{border-collapse:collapse;border:var(--markmap-table-border)}.markmap-foreign img{display:inline-block}.markmap-foreign svg{fill:currentColor}.markmap-foreign&gt;div{width:var(--markmap-max-width);text-align:left}.markmap-foreign&gt;div&gt;div{display:inline-block}.markmap-highlight rect{fill:var(--markmap-highlight-node-bg)}.markmap-dark .markmap{--markmap-code-bg: #1a1b26;--markmap-code-color: #ddd;--markmap-circle-open-bg: #444;--markmap-text-color: #eee}</style><g transform="translate(67.09281281808012,349.00678448436713) scale(0.6548309031875557)"><path class="markmap-link" data-depth="3" data-path="1.2.3" d="M272,-327.422C312,-327.422,312,-380.359,352,-380.359" stroke-width="1.375" stroke="rgb(148, 103, 189)"/><path class="markmap-link" data-depth="3" data-path="1.2.4" d="M272,-327.422C312,-327.422,312,-353.984,352,-353.984" stroke-width="1.375" stroke="rgb(140, 86, 75)"/><path class="markmap-link" data-depth="3" data-path="1.2.5" d="M272,-327.422C312,-327.422,312,-327.609,352,-327.609" stroke-width="1.375" stroke="rgb(227, 119, 194)"/><path class="markmap-link" data-depth="3" data-path="1.2.6" d="M272,-327.422C312,-327.422,312,-301.234,352,-301.234" stroke-width="1.375" stroke="rgb(127, 127, 127)"/><path class="markmap-link" data-depth="3" data-path="1.2.7" d="M272,-327.422C312,-327.422,312,-274.859,352,-274.859" stroke-width="1.375" stroke="rgb(188, 189, 34)"/><path class="markmap-link" data-depth="4" data-path="1.8.9.10" d="M448,-151.828C488,-151.828,488,-243.578,528,-243.578" stroke-width="1.1875" stroke="rgb(255, 127, 14)"/><path class="markmap-link" data-depth="4" data-path="1.8.9.11" d="M448,-151.828C488,-151.828,488,-217.391,528,-217.391" stroke-width="1.1875" stroke="rgb(44, 160, 44)"/><path class="markmap-link" data-depth="4" data-path="1.8.9.12" d="M448,-151.828C488,-151.828,488,-191.203,528,-191.203" stroke-width="1.1875" stroke="rgb(214, 39, 40)"/><path class="markmap-link" data-depth="4" data-path="1.8.9.13" d="M448,-151.828C488,-151.828,488,-165.016,528,-165.016" stroke-width="1.1875" stroke="rgb(148, 103, 189)"/><path class="markmap-link" data-depth="4" data-path="1.8.9.14" d="M448,-151.828C488,-151.828,488,-138.828,528,-138.828" stroke-width="1.1875" stroke="rgb(140, 86, 75)"/><path class="markmap-link" data-depth="4" data-path="1.8.9.15" d="M448,-151.828C488,-151.828,488,-112.641,528,-112.641" stroke-width="1.1875" stroke="rgb(227, 119, 194)"/><path class="markmap-link" data-depth="4" data-path="1.8.9.16" d="M448,-151.828C488,-151.828,488,-86.453,528,-86.453" stroke-width="1.1875" stroke="rgb(127, 127, 127)"/><path class="markmap-link" data-depth="4" data-path="1.8.9.17" d="M448,-151.828C488,-151.828,488,-60.266,528,-60.266" stroke-width="1.1875" stroke="rgb(188, 189, 34)"/><path class="markmap-link" data-depth="5" data-path="1.8.18.20.21" d="M587,85.391C627,85.391,627,2.063,667,2.063" stroke-width="1.09375" stroke="rgb(44, 160, 44)"/><path class="markmap-link" data-depth="5" data-path="1.8.18.20.22" d="M587,85.391C627,85.391,627,28.156,667,28.156" stroke-width="1.09375" stroke="rgb(214, 39, 40)"/><path class="markmap-link" data-depth="5" data-path="1.8.18.20.23" d="M587,85.391C627,85.391,627,59.25,667,59.25" stroke-width="1.09375" stroke="rgb(148, 103, 189)"/><path class="markmap-link" data-depth="5" data-path="1.8.18.20.24" d="M587,85.391C627,85.391,627,90.344,667,90.344" stroke-width="1.09375" stroke="rgb(140, 86, 75)"/><path class="markmap-link" data-depth="5" data-path="1.8.18.20.25" d="M587,85.391C627,85.391,627,116.438,667,116.438" stroke-width="1.09375" stroke="rgb(227, 119, 194)"/><path class="markmap-link" data-depth="5" data-path="1.8.18.20.26" d="M587,85.391C627,85.391,627,142.531,667,142.531" stroke-width="1.09375" stroke="rgb(127, 127, 127)"/><path class="markmap-link" data-depth="5" data-path="1.8.18.20.27" d="M587,85.391C627,85.391,627,168.625,667,168.625" stroke-width="1.09375" stroke="rgb(188, 189, 34)"/><path class="markmap-link" data-depth="4" data-path="1.8.18.19" d="M416,28.25C456,28.25,456,-29.078,496,-29.078" stroke-width="1.1875" stroke="rgb(31, 119, 180)"/><path class="markmap-link" data-depth="4" data-path="1.8.18.20" d="M416,28.25C456,28.25,456,85.391,496,85.391" stroke-width="1.1875" stroke="rgb(255, 127, 14)"/><path class="markmap-link" data-depth="4" data-path="1.8.28.29" d="M432,252.234C472,252.234,472,199.766,512,199.766" stroke-width="1.1875" stroke="rgb(31, 119, 180)"/><path class="markmap-link" data-depth="4" data-path="1.8.28.30" d="M432,252.234C472,252.234,472,225.953,512,225.953" stroke-width="1.1875" stroke="rgb(255, 127, 14)"/><path class="markmap-link" data-depth="4" data-path="1.8.28.31" d="M432,252.234C472,252.234,472,252.141,512,252.141" stroke-width="1.1875" stroke="rgb(44, 160, 44)"/><path class="markmap-link" data-depth="4" data-path="1.8.28.32" d="M432,252.234C472,252.234,472,278.328,512,278.328" stroke-width="1.1875" stroke="rgb(214, 39, 40)"/><path class="markmap-link" data-depth="4" data-path="1.8.28.33" d="M432,252.234C472,252.234,472,304.516,512,304.516" stroke-width="1.1875" stroke="rgb(148, 103, 189)"/><path class="markmap-link" data-depth="3" data-path="1.8.9" d="M256,50.391C296,50.391,296,-151.828,336,-151.828" stroke-width="1.375" stroke="rgb(31, 119, 180)"/><path class="markmap-link" data-depth="3" data-path="1.8.18" d="M256,50.391C296,50.391,296,28.25,336,28.25" stroke-width="1.375" stroke="rgb(23, 190, 207)"/><path class="markmap-link" data-depth="3" data-path="1.8.28" d="M256,50.391C296,50.391,296,252.234,336,252.234" stroke-width="1.375" stroke="rgb(23, 190, 207)"/><path class="markmap-link" data-depth="3" data-path="1.34.35" d="M256,349.172C296,349.172,296,335.797,336,335.797" stroke-width="1.375" stroke="rgb(227, 119, 194)"/><path class="markmap-link" data-depth="3" data-path="1.34.36" d="M256,349.172C296,349.172,296,362.172,336,362.172" stroke-width="1.375" stroke="rgb(127, 127, 127)"/><path class="markmap-link" data-depth="2" data-path="1.2" d="M96,11.25C136,11.25,136,-327.422,176,-327.422" stroke-width="1.75" stroke="rgb(255, 127, 14)"/><path class="markmap-link" data-depth="2" data-path="1.8" d="M96,11.25C136,11.25,136,50.391,176,50.391" stroke-width="1.75" stroke="rgb(23, 190, 207)"/><path class="markmap-link" data-depth="2" data-path="1.34" d="M96,11.25C136,11.25,136,349.172,176,349.172" stroke-width="1.75" stroke="rgb(140, 86, 75)"/><g class="markmap-highlight"/><g data-depth="3" data-path="1.2.3" class="markmap-node" transform="translate(352, -401.046875)"><line stroke="#9467bd" stroke-width="1.375" x1="-1" x2="194" y1="20.6875" y2="20.6875"/><foreignObject class="markmap-foreign" x="8" y="0" style="opacity: 1;" width="176" height="20"><div xmlns="http://www.w3.org/1999/xhtml"><div xmlns="http://www.w3.org/1999/xhtml">阅读相关文档或官方手册</div></div></foreignObject></g><g data-depth="3" data-path="1.2.4" class="markmap-node" transform="translate(352, -374.671875)"><line stroke="#8c564b" stroke-width="1.375" x1="-1" x2="210" y1="20.6875" y2="20.6875"/><foreignObject class="markmap-foreign" x="8" y="0" style="opacity: 1;" width="192" height="20"><div xmlns="http://www.w3.org/1999/xhtml"><div xmlns="http://www.w3.org/1999/xhtml">使用搜索引擎查询类似问题</div></div></foreignObject></g><g data-depth="3" data-path="1.2.5" class="markmap-node" transform="translate(352, -348.296875)"><line stroke="#e377c2" stroke-width="1.375" x1="-1" x2="318" y1="20.6875" y2="20.6875"/><foreignObject class="markmap-foreign" x="8" y="0" style="opacity: 1;" width="300" height="20"><div xmlns="http://www.w3.org/1999/xhtml"><div xmlns="http://www.w3.org/1999/xhtml">利用 AI 工具（如 ChatGPT）辅助查找答案</div></div></foreignObject></g><g data-depth="3" data-path="1.2.6" class="markmap-node" transform="translate(352, -321.921875)"><line stroke="#7f7f7f" stroke-width="1.375" x1="-1" x2="290" y1="20.6875" y2="20.6875"/><foreignObject class="markmap-foreign" x="8" y="0" style="opacity: 1;" width="272" height="20"><div xmlns="http://www.w3.org/1999/xhtml"><div xmlns="http://www.w3.org/1999/xhtml">自己动手尝试，并记录尝试过程和结果</div></div></foreignObject></g><g data-depth="3" data-path="1.2.7" class="markmap-node" transform="translate(352, -295.546875)"><line stroke="#bcbd22" stroke-width="1.375" x1="-1" x2="306" y1="20.6875" y2="20.6875"/><foreignObject class="markmap-foreign" x="8" y="0" style="opacity: 1;" width="288" height="20"><div xmlns="http://www.w3.org/1999/xhtml"><div xmlns="http://www.w3.org/1999/xhtml">原则：以上方法均无法解决问题，再提问</div></div></foreignObject></g><g data-depth="2" data-path="1.2" class="markmap-node" transform="translate(176, -348.296875)"><line stroke="#ff7f0e" stroke-width="1.75" x1="-1" x2="98" y1="20.875" y2="20.875"/><circle stroke-width="1.5" r="6" stroke="#ff7f0e" fill="var(--markmap-circle-open-bg)" cx="96" cy="20.875"/><foreignObject class="markmap-foreign" x="8" y="0" style="opacity: 1;" width="80" height="20"><div xmlns="http://www.w3.org/1999/xhtml"><div xmlns="http://www.w3.org/1999/xhtml">
<p data-lines="2,3">提问前准备</p></div></div></foreignObject></g><g data-depth="4" data-path="1.8.9.10" class="markmap-node" transform="translate(528, -264.171875)"><line stroke="#ff7f0e" stroke-width="1.1875" x1="-1" x2="50" y1="20.59375" y2="20.59375"/><foreignObject class="markmap-foreign" x="8" y="0" style="opacity: 1;" width="32" height="20"><div xmlns="http://www.w3.org/1999/xhtml"><div xmlns="http://www.w3.org/1999/xhtml">背景</div></div></foreignObject></g><g data-depth="4" data-path="1.8.9.11" class="markmap-node" transform="translate(528, -237.984375)"><line stroke="#2ca02c" stroke-width="1.1875" x1="-1" x2="50" y1="20.59375" y2="20.59375"/><foreignObject class="markmap-foreign" x="8" y="0" style="opacity: 1;" width="32" height="20"><div xmlns="http://www.w3.org/1999/xhtml"><div xmlns="http://www.w3.org/1999/xhtml">目标</div></div></foreignObject></g><g data-depth="4" data-path="1.8.9.12" class="markmap-node" transform="translate(528, -211.796875)"><line stroke="#d62728" stroke-width="1.1875" x1="-1" x2="50" y1="20.59375" y2="20.59375"/><foreignObject class="markmap-foreign" x="8" y="0" style="opacity: 1;" width="32" height="20"><div xmlns="http://www.w3.org/1999/xhtml"><div xmlns="http://www.w3.org/1999/xhtml">现状</div></div></foreignObject></g><g data-depth="4" data-path="1.8.9.13" class="markmap-node" transform="translate(528, -185.609375)"><line stroke="#9467bd" stroke-width="1.1875" x1="-1" x2="50" y1="20.59375" y2="20.59375"/><foreignObject class="markmap-foreign" x="8" y="0" style="opacity: 1;" width="32" height="20"><div xmlns="http://www.w3.org/1999/xhtml"><div xmlns="http://www.w3.org/1999/xhtml">尝试</div></div></foreignObject></g><g data-depth="4" data-path="1.8.9.14" class="markmap-node" transform="translate(528, -159.421875)"><line stroke="#8c564b" stroke-width="1.1875" x1="-1" x2="82" y1="20.59375" y2="20.59375"/><foreignObject class="markmap-foreign" x="8" y="0" style="opacity: 1;" width="64" height="20"><div xmlns="http://www.w3.org/1999/xhtml"><div xmlns="http://www.w3.org/1999/xhtml">初步判断</div></div></foreignObject></g><g data-depth="4" data-path="1.8.9.15" class="markmap-node" transform="translate(528, -133.234375)"><line stroke="#e377c2" stroke-width="1.1875" x1="-1" x2="82" y1="20.59375" y2="20.59375"/><foreignObject class="markmap-foreign" x="8" y="0" style="opacity: 1;" width="64" height="20"><div xmlns="http://www.w3.org/1999/xhtml"><div xmlns="http://www.w3.org/1999/xhtml">补充信息</div></div></foreignObject></g><g data-depth="4" data-path="1.8.9.16" class="markmap-node" transform="translate(528, -107.046875)"><line stroke="#7f7f7f" stroke-width="1.1875" x1="-1" x2="50" y1="20.59375" y2="20.59375"/><foreignObject class="markmap-foreign" x="8" y="0" style="opacity: 1;" width="32" height="20"><div xmlns="http://www.w3.org/1999/xhtml"><div xmlns="http://www.w3.org/1999/xhtml">态度</div></div></foreignObject></g><g data-depth="4" data-path="1.8.9.17" class="markmap-node" transform="translate(528, -80.859375)"><line stroke="#bcbd22" stroke-width="1.1875" x1="-1" x2="301" y1="20.59375" y2="20.59375"/><foreignObject class="markmap-foreign" x="8" y="0" style="opacity: 1;" width="283" height="20"><div xmlns="http://www.w3.org/1999/xhtml"><div xmlns="http://www.w3.org/1999/xhtml">💡 提示：附上自己的判断更好，但可选</div></div></foreignObject></g><g data-depth="3" data-path="1.8.9" class="markmap-node" transform="translate(336, -172.515625)"><line stroke="#1f77b4" stroke-width="1.375" x1="-1" x2="114" y1="20.6875" y2="20.6875"/><circle stroke-width="1.5" r="6" stroke="#1f77b4" fill="var(--markmap-circle-open-bg)" cx="112" cy="20.6875"/><foreignObject class="markmap-foreign" x="8" y="0" style="opacity: 1;" width="96" height="20"><div xmlns="http://www.w3.org/1999/xhtml"><div xmlns="http://www.w3.org/1999/xhtml">保持问题完整</div></div></foreignObject></g><g data-depth="4" data-path="1.8.18.19" class="markmap-node" transform="translate(496, -49.671875)"><line stroke="#1f77b4" stroke-width="1.1875" x1="-1" x2="288" y1="20.59375" y2="20.59375"/><foreignObject class="markmap-foreign" x="8" y="0" style="opacity: 1;" width="270" height="20"><div xmlns="http://www.w3.org/1999/xhtml"><div xmlns="http://www.w3.org/1999/xhtml">❌ 不完整：hexo博客部署失败咋整？</div></div></foreignObject></g><g data-depth="5" data-path="1.8.18.20.21" class="markmap-node" transform="translate(667, -18.484375)"><line stroke="#2ca02c" stroke-width="1.09375" x1="-1" x2="241" y1="20.546875" y2="20.546875"/><foreignObject class="markmap-foreign" x="8" y="0" style="opacity: 1;" width="223" height="20"><div xmlns="http://www.w3.org/1999/xhtml"><div xmlns="http://www.w3.org/1999/xhtml">我在用 Hexo 搭建博客（背景）</div></div></foreignObject></g><g data-depth="5" data-path="1.8.18.20.22" class="markmap-node" transform="translate(667, 7.609375)"><line stroke="#d62728" stroke-width="1.09375" x1="-1" x2="269" y1="20.546875" y2="20.546875"/><foreignObject class="markmap-foreign" x="8" y="0" style="opacity: 1;" width="251" height="20"><div xmlns="http://www.w3.org/1999/xhtml"><div xmlns="http://www.w3.org/1999/xhtml">想部署到 GitHub Pages 上（目标）</div></div></foreignObject></g><g data-depth="5" data-path="1.8.18.20.23" class="markmap-node" transform="translate(667, 33.703125)"><line stroke="#9467bd" stroke-width="1.09375" x1="-1" x2="247" y1="25.546875" y2="25.546875"/><foreignObject class="markmap-foreign" x="8" y="0" style="opacity: 1;" width="229" height="25"><div xmlns="http://www.w3.org/1999/xhtml"><div xmlns="http://www.w3.org/1999/xhtml">执行 <code>hexo deploy</code> 失败（现状）</div></div></foreignObject></g><g data-depth="5" data-path="1.8.18.20.24" class="markmap-node" transform="translate(667, 64.796875)"><line stroke="#8c564b" stroke-width="1.09375" x1="-1" x2="343" y1="25.546875" y2="25.546875"/><foreignObject class="markmap-foreign" x="8" y="0" style="opacity: 1;" width="325" height="25"><div xmlns="http://www.w3.org/1999/xhtml"><div xmlns="http://www.w3.org/1999/xhtml">配置了 <code>_config.yml</code> 并设置仓库地址（尝试）</div></div></foreignObject></g><g data-depth="5" data-path="1.8.18.20.25" class="markmap-node" transform="translate(667, 95.890625)"><line stroke="#e377c2" stroke-width="1.09375" x1="-1" x2="226" y1="20.546875" y2="20.546875"/><foreignObject class="markmap-foreign" x="8" y="0" style="opacity: 1;" width="208" height="20"><div xmlns="http://www.w3.org/1999/xhtml"><div xmlns="http://www.w3.org/1999/xhtml">怀疑是网络问题（初步判断）</div></div></foreignObject></g><g data-depth="5" data-path="1.8.18.20.26" class="markmap-node" transform="translate(667, 121.984375)"><line stroke="#7f7f7f" stroke-width="1.09375" x1="-1" x2="479" y1="20.546875" y2="20.546875"/><foreignObject class="markmap-foreign" x="8" y="0" style="opacity: 1;" width="461" height="20"><div xmlns="http://www.w3.org/1999/xhtml"><div xmlns="http://www.w3.org/1999/xhtml">报错信息 xxxx，Windows版本 xxxx，Hexo版本 xxxx（补充信息）</div></div></foreignObject></g><g data-depth="5" data-path="1.8.18.20.27" class="markmap-node" transform="translate(667, 148.078125)"><line stroke="#bcbd22" stroke-width="1.09375" x1="-1" x2="242" y1="20.546875" y2="20.546875"/><foreignObject class="markmap-foreign" x="8" y="0" style="opacity: 1;" width="224" height="20"><div xmlns="http://www.w3.org/1999/xhtml"><div xmlns="http://www.w3.org/1999/xhtml">请问可能原因是什么？（态度）</div></div></foreignObject></g><g data-depth="4" data-path="1.8.18.20" class="markmap-node" transform="translate(496, 64.796875)"><line stroke="#ff7f0e" stroke-width="1.1875" x1="-1" x2="93" y1="20.59375" y2="20.59375"/><circle stroke-width="1.5" r="6" stroke="#ff7f0e" fill="var(--markmap-circle-open-bg)" cx="91" cy="20.59375"/><foreignObject class="markmap-foreign" x="8" y="0" style="opacity: 1;" width="75" height="20"><div xmlns="http://www.w3.org/1999/xhtml"><div xmlns="http://www.w3.org/1999/xhtml">✅ 完整：</div></div></foreignObject></g><g data-depth="3" data-path="1.8.18" class="markmap-node" transform="translate(336, 7.5625)"><line stroke="#17becf" stroke-width="1.375" x1="-1" x2="82" y1="20.6875" y2="20.6875"/><circle stroke-width="1.5" r="6" stroke="#17becf" fill="var(--markmap-circle-open-bg)" cx="80" cy="20.6875"/><foreignObject class="markmap-foreign" x="8" y="0" style="opacity: 1;" width="64" height="20"><div xmlns="http://www.w3.org/1999/xhtml"><div xmlns="http://www.w3.org/1999/xhtml">示例对比</div></div></foreignObject></g><g data-depth="4" data-path="1.8.28.29" class="markmap-node" transform="translate(512, 179.171875)"><line stroke="#1f77b4" stroke-width="1.1875" x1="-1" x2="114" y1="20.59375" y2="20.59375"/><foreignObject class="markmap-foreign" x="8" y="0" style="opacity: 1;" width="96" height="20"><div xmlns="http://www.w3.org/1999/xhtml"><div xmlns="http://www.w3.org/1999/xhtml">便于快速理解</div></div></foreignObject></g><g data-depth="4" data-path="1.8.28.30" class="markmap-node" transform="translate(512, 205.359375)"><line stroke="#ff7f0e" stroke-width="1.1875" x1="-1" x2="130" y1="20.59375" y2="20.59375"/><foreignObject class="markmap-foreign" x="8" y="0" style="opacity: 1;" width="112" height="20"><div xmlns="http://www.w3.org/1999/xhtml"><div xmlns="http://www.w3.org/1999/xhtml">方便记录和检索</div></div></foreignObject></g><g data-depth="4" data-path="1.8.28.31" class="markmap-node" transform="translate(512, 231.546875)"><line stroke="#2ca02c" stroke-width="1.1875" x1="-1" x2="114" y1="20.59375" y2="20.59375"/><foreignObject class="markmap-foreign" x="8" y="0" style="opacity: 1;" width="96" height="20"><div xmlns="http://www.w3.org/1999/xhtml"><div xmlns="http://www.w3.org/1999/xhtml">利于多人协作</div></div></foreignObject></g><g data-depth="4" data-path="1.8.28.32" class="markmap-node" transform="translate(512, 257.734375)"><line stroke="#d62728" stroke-width="1.1875" x1="-1" x2="114" y1="20.59375" y2="20.59375"/><foreignObject class="markmap-foreign" x="8" y="0" style="opacity: 1;" width="96" height="20"><div xmlns="http://www.w3.org/1999/xhtml"><div xmlns="http://www.w3.org/1999/xhtml">提升提问质量</div></div></foreignObject></g><g data-depth="4" data-path="1.8.28.33" class="markmap-node" transform="translate(512, 283.921875)"><line stroke="#9467bd" stroke-width="1.1875" x1="-1" x2="114" y1="20.59375" y2="20.59375"/><foreignObject class="markmap-foreign" x="8" y="0" style="opacity: 1;" width="96" height="20"><div xmlns="http://www.w3.org/1999/xhtml"><div xmlns="http://www.w3.org/1999/xhtml">尊重他人时间</div></div></foreignObject></g><g data-depth="3" data-path="1.8.28" class="markmap-node" transform="translate(336, 231.546875)"><line stroke="#17becf" stroke-width="1.375" x1="-1" x2="98" y1="20.6875" y2="20.6875"/><circle stroke-width="1.5" r="6" stroke="#17becf" fill="var(--markmap-circle-open-bg)" cx="96" cy="20.6875"/><foreignObject class="markmap-foreign" x="8" y="0" style="opacity: 1;" width="80" height="20"><div xmlns="http://www.w3.org/1999/xhtml"><div xmlns="http://www.w3.org/1999/xhtml">不要发语音</div></div></foreignObject></g><g data-depth="2" data-path="1.8" class="markmap-node" transform="translate(176, 29.515625)"><line stroke="#17becf" stroke-width="1.75" x1="-1" x2="82" y1="20.875" y2="20.875"/><circle stroke-width="1.5" r="6" stroke="#17becf" fill="var(--markmap-circle-open-bg)" cx="80" cy="20.875"/><foreignObject class="markmap-foreign" x="8" y="0" style="opacity: 1;" width="64" height="20"><div xmlns="http://www.w3.org/1999/xhtml"><div xmlns="http://www.w3.org/1999/xhtml">
<p data-lines="9,10">编辑问题</p></div></div></foreignObject></g><g data-depth="3" data-path="1.34.35" class="markmap-node" transform="translate(336, 315.109375)"><line stroke="#e377c2" stroke-width="1.375" x1="-1" x2="114" y1="20.6875" y2="20.6875"/><foreignObject class="markmap-foreign" x="8" y="0" style="opacity: 1;" width="96" height="20"><div xmlns="http://www.w3.org/1999/xhtml"><div xmlns="http://www.w3.org/1999/xhtml">记录关键步骤</div></div></foreignObject></g><g data-depth="3" data-path="1.34.36" class="markmap-node" transform="translate(336, 341.484375)"><line stroke="#7f7f7f" stroke-width="1.375" x1="-1" x2="274" y1="20.6875" y2="20.6875"/><foreignObject class="markmap-foreign" x="8" y="0" style="opacity: 1;" width="256" height="20"><div xmlns="http://www.w3.org/1999/xhtml"><div xmlns="http://www.w3.org/1999/xhtml">反馈结果（是否解决，并表达感谢）</div></div></foreignObject></g><g data-depth="2" data-path="1.34" class="markmap-node" transform="translate(176, 328.296875)"><line stroke="#8c564b" stroke-width="1.75" x1="-1" x2="82" y1="20.875" y2="20.875"/><circle stroke-width="1.5" r="6" stroke="#8c564b" fill="var(--markmap-circle-open-bg)" cx="80" cy="20.875"/><foreignObject class="markmap-foreign" x="8" y="0" style="opacity: 1;" width="64" height="20"><div xmlns="http://www.w3.org/1999/xhtml"><div xmlns="http://www.w3.org/1999/xhtml">
<p data-lines="36,37">提问之后</p></div></div></foreignObject></g><g data-depth="1" data-path="1" class="markmap-node" transform="translate(0, -10)"><line stroke="#1f77b4" stroke-width="2.5" x1="-1" x2="98" y1="21.25" y2="21.25"/><circle stroke-width="1.5" r="6" stroke="#1f77b4" fill="var(--markmap-circle-open-bg)" cx="96" cy="21.25"/><foreignObject class="markmap-foreign" x="8" y="0" style="opacity: 1;" width="80" height="20"><div xmlns="http://www.w3.org/1999/xhtml"><div xmlns="http://www.w3.org/1999/xhtml">在提问之前</div></div></foreignObject></g></g></svg>